<?xml version="1.0" standalone="no"?>
<!DOCTYPE svg PUBLIC "-//W3C//DTD SVG 20010904//EN"
 "http://www.w3.org/TR/2001/REC-SVG-20010904/DTD/svg10.dtd">
<svg version="1.0" xmlns="http://www.w3.org/2000/svg"
 width="187.000000pt" height="187.000000pt" viewBox="0 0 187.000000 187.000000"
 preserveAspectRatio="xMidYMid meet">

<g transform="translate(0.000000,187.000000) scale(0.100000,-0.100000)"
fill="#000000" stroke="none">
<path d="M262 1160 l3 -161 130 -69 c72 -38 133 -69 138 -70 4 0 7 71 7 158
l0 157 -140 73 -141 73 3 -161z"/>
<path d="M685 1097 c-86 -41 -112 -113 -59 -162 15 -14 30 -25 34 -25 5 0 36
-16 70 -35 34 -19 64 -35 66 -35 2 0 4 9 4 20 0 11 -12 27 -27 36 -107 66
-126 90 -104 132 15 28 72 52 126 52 37 0 64 -9 122 -41 40 -22 80 -51 89 -64
23 -35 1 -73 -58 -100 -40 -19 -46 -24 -34 -34 19 -16 90 14 125 53 56 60 21
116 -113 185 -90 46 -171 52 -241 18z"/>
<path d="M924 973 c-81 -27 -122 -98 -84 -146 26 -32 147 -105 190 -113 l30
-6 0 -83 0 -83 63 -32 c34 -18 98 -52 142 -75 l80 -43 -3 162 -3 161 -139 73
-140 73 0 -60 c0 -34 -3 -61 -6 -61 -10 0 -138 72 -156 88 -18 16 -23 47 -11
77 3 10 28 27 55 39 39 17 47 24 36 33 -9 7 -25 6 -54 -4z"/>
<path d="M1092 959 c5 -33 38 -51 66 -35 22 12 21 12 -24 34 l-45 22 3 -21z"/>
</g>
</svg>
