<?xml version="1.0" standalone="no"?>
<!DOCTYPE svg PUBLIC "-//W3C//DTD SVG 20010904//EN"
 "http://www.w3.org/TR/2001/REC-SVG-20010904/DTD/svg10.dtd">
<svg version="1.0" xmlns="http://www.w3.org/2000/svg"
 width="130.000000pt" height="130.000000pt" viewBox="0 0 130.000000 130.000000"
 preserveAspectRatio="xMidYMid meet">

<g transform="translate(0.000000,130.000000) scale(0.100000,-0.100000)"
fill="#000000" stroke="none">
<path d="M453 1141 c-4 -15 -17 -20 -60 -23 -78 -7 -84 -18 -81 -143 3 -91 5
-100 25 -110 19 -10 13 -14 -62 -38 -46 -15 -89 -35 -97 -44 -12 -15 -10 -16
14 -10 14 4 34 10 44 14 12 4 15 3 10 -5 -4 -7 -1 -12 9 -12 9 0 14 3 12 8 -3
4 6 7 19 7 36 0 29 -12 -11 -19 -20 -4 -33 -11 -30 -16 3 -6 0 -7 -8 -4 -7 2
-25 0 -40 -5 -18 -7 -27 -7 -31 2 -2 7 -5 -19 -5 -57 l-1 -69 -80 -109 c-47
-63 -80 -118 -80 -132 0 -21 6 -25 63 -35 59 -10 199 -25 316 -34 62 -5 73
-17 81 -87 4 -38 10 -47 35 -59 43 -20 257 -26 315 -9 l45 14 5 62 c6 73 15
82 85 82 58 0 202 16 293 31 55 10 62 14 62 34 0 12 -31 66 -70 119 l-70 96 0
94 c0 68 -4 97 -14 105 -8 6 -51 25 -97 41 -46 15 -76 29 -67 29 28 1 38 35
38 128 0 116 -7 126 -94 131 -52 3 -69 8 -77 23 -12 23 -37 25 -46 4 -4 -12
-18 -15 -56 -14 -60 3 -76 -13 -78 -80 l-1 -46 -9 55 c-5 30 -14 59 -19 64 -5
5 -36 8 -68 7 -42 -1 -63 3 -72 14 -17 21 -41 19 -47 -4z m277 -58 c-8 -3 -18
-11 -22 -17 -5 -7 -8 -4 -8 7 0 11 7 17 23 16 15 0 17 -2 7 -6z m45 -3 c3 -5
1 -10 -5 -10 -6 0 -9 -4 -6 -9 3 -5 14 -8 24 -6 9 1 11 0 3 -2 -12 -4 -12 -6
0 -14 11 -7 11 -9 -3 -9 -9 0 -23 6 -30 13 -7 8 -20 16 -28 20 -10 3 -7 6 8 6
13 1 20 5 17 11 -3 6 -2 10 4 10 5 0 13 -4 16 -10z m-262 -7 c-7 -2 -21 -2
-30 0 -10 3 -4 5 12 5 17 0 24 -2 18 -5z m377 -5 c0 -8 -80 0 -90 9 -2 2 17 3
43 2 26 -2 47 -6 47 -11z m-497 -5 c-7 -2 -21 -2 -30 0 -10 3 -4 5 12 5 17 0
24 -2 18 -5z m72 -13 c3 -5 1 -10 -4 -10 -6 0 -11 5 -11 10 0 6 2 10 4 10 3 0
8 -4 11 -10z m48 3 c-7 -2 -19 -2 -25 0 -7 3 -2 5 12 5 14 0 19 -2 13 -5z
m-108 -13 c-29 -5 -33 -8 -15 -9 23 -2 23 -3 5 -10 -16 -7 -13 -9 18 -13 21
-2 40 0 43 4 3 4 0 8 -7 8 -7 0 -10 2 -8 4 2 3 20 1 39 -4 l35 -8 -32 -7 c-23
-5 -33 -13 -33 -26 0 -11 -7 -19 -17 -19 -15 0 -16 2 -3 10 12 8 9 10 -13 10
-16 0 -26 4 -22 10 3 6 -1 10 -9 10 -17 0 -14 -33 5 -56 8 -10 8 -14 0 -14 -6
0 -11 5 -11 10 0 6 -7 10 -16 10 -8 0 -12 5 -9 10 3 6 7 28 7 50 l0 40 42 -1
41 -2 -40 -7z m328 3 c-7 -2 -19 -2 -25 0 -7 3 -2 5 12 5 14 0 19 -2 13 -5z
m0 -40 c6 -34 4 -38 -20 -24 -14 8 -14 10 -3 11 13 0 13 1 0 10 -13 9 -13 10
0 10 13 0 13 1 0 10 -13 8 -13 10 1 10 10 0 19 -11 22 -27z m32 17 c3 -5 -1
-10 -9 -10 -9 0 -16 5 -16 10 0 6 4 10 9 10 6 0 13 -4 16 -10z m78 -10 c-5
-17 -13 -20 -57 -18 l-51 1 50 7 c38 5 43 8 20 10 l-30 3 35 7 c19 4 36 8 37
9 0 0 -1 -8 -4 -19z m85 -7 c-10 -2 -28 -2 -40 0 -13 2 -5 4 17 4 22 1 32 -1
23 -4z m-407 -12 c-11 -7 -9 -10 10 -14 23 -4 22 -4 -3 -6 -19 -1 -28 4 -28
14 0 8 8 15 18 15 14 0 14 -2 3 -9z m119 -5 c0 -2 -9 -6 -20 -9 -11 -3 -20 -1
-20 4 0 5 9 9 20 9 11 0 20 -2 20 -4z m273 -3 c-7 -2 -21 -2 -30 0 -10 3 -4 5
12 5 17 0 24 -2 18 -5z m-423 -13 c0 -5 -7 -10 -15 -10 -8 0 -15 5 -15 10 0 6
7 10 15 10 8 0 15 -4 15 -10z m340 2 c0 -4 -18 -6 -40 -4 -22 2 -40 6 -40 8 0
2 18 4 40 4 22 0 40 -3 40 -8z m71 -2 c17 0 28 -4 25 -8 -7 -11 -86 -2 -86 10
0 6 7 7 16 4 9 -3 29 -6 45 -6z m-210 -76 c10 -12 5 -14 -25 -14 -36 0 -37 0
-22 22 9 12 16 32 17 43 1 15 3 13 9 -8 5 -16 14 -35 21 -43z m-248 49 c-7 -2
-19 -2 -25 0 -7 3 -2 5 12 5 14 0 19 -2 13 -5z m90 -100 c-7 -2 -21 -2 -30 0
-10 3 -4 5 12 5 17 0 24 -2 18 -5z m60 0 c-7 -2 -21 -2 -30 0 -10 3 -4 5 12 5
17 0 24 -2 18 -5z m-193 -12 c0 -5 -9 -11 -20 -14 -11 -3 -20 -1 -20 3 0 5 8
11 18 13 9 3 18 5 20 6 1 0 2 -3 2 -8z m168 -8 c-10 -2 -26 -2 -35 0 -10 3 -2
5 17 5 19 0 27 -2 18 -5z m387 -3 c8 -13 -5 -13 -25 0 -13 8 -13 10 2 10 9 0
20 -4 23 -10z m-615 -10 c-11 -7 -11 -10 -2 -10 7 0 10 -5 6 -11 -5 -8 -9 -8
-14 1 -4 7 -16 9 -29 5 -11 -3 -21 -4 -21 0 0 7 40 24 60 24 13 1 13 0 0 -9z
m591 0 c5 0 9 -3 9 -7 0 -5 -10 -8 -23 -8 -13 0 -24 6 -24 13 0 7 7 10 14 7 8
-3 19 -5 24 -5z m117 -34 c3 -15 0 -16 -20 -10 -12 4 -33 8 -45 9 -11 0 -19 3
-16 8 2 4 -1 7 -7 7 -7 0 -6 5 2 14 17 18 81 -3 86 -28z m-668 -10 c0 -3 -4
-8 -10 -11 -5 -3 -10 -1 -10 4 0 6 5 11 10 11 6 0 10 -2 10 -4z m625 -26 c3
-6 -1 -7 -9 -4 -18 7 -21 14 -7 14 6 0 13 -4 16 -10z m65 -20 c0 -5 -2 -10 -4
-10 -3 0 -8 5 -11 10 -3 6 -1 10 4 10 6 0 11 -4 11 -10z m-787 -30 c-15 -14
-56 -23 -49 -11 4 6 14 11 22 11 8 0 12 4 9 10 -3 6 1 7 10 4 9 -4 13 -10 8
-14z m682 0 c3 -6 -1 -7 -9 -4 -18 7 -21 14 -7 14 6 0 13 -4 16 -10z m-761 -9
c7 -10 -22 -37 -30 -28 -9 8 3 37 15 37 5 0 12 -4 15 -9z m121 -21 c-3 -5 -14
-10 -23 -10 -15 0 -15 2 -2 10 20 13 33 13 25 0z m-115 -30 c0 5 8 10 17 10
15 0 14 -2 -3 -15 -19 -15 -19 -15 1 -9 20 5 20 5 1 -7 -14 -9 -21 -9 -24 -1
-2 6 -9 9 -16 6 -7 -3 -13 2 -13 10 0 11 5 13 19 5 12 -6 18 -6 18 1z m490
-134 c75 -1 87 -3 73 -14 -24 -18 -81 -32 -128 -32 -36 0 -145 41 -145 55 0 3
25 2 56 -1 30 -4 95 -7 144 -8z m-190 -23 c-8 -3 -22 -11 -30 -17 -13 -10 -13
-9 -1 7 7 9 21 17 30 16 13 0 14 -1 1 -6z m318 -16 c17 -18 19 -24 8 -24 -8 0
-13 4 -10 9 3 4 1 8 -4 8 -6 0 -12 7 -16 15 -8 21 -3 19 22 -8z m-382 -13
c-11 -7 -22 -11 -25 -8 -3 3 3 12 13 20 11 7 22 11 25 8 3 -3 -3 -12 -13 -20z
m57 1 c-3 -9 -8 -14 -10 -11 -3 3 -2 9 2 15 9 16 15 13 8 -4z m377 0 c7 -8 8
-15 2 -15 -5 0 -15 7 -22 15 -7 8 -8 15 -2 15 5 0 15 -7 22 -15z m-143 -1 c-3
-3 -12 -4 -19 -1 -8 3 -5 6 6 6 11 1 17 -2 13 -5z m-64 -11 c-13 -2 -33 -2
-45 0 -13 2 -3 4 22 4 25 0 35 -2 23 -4z m147 -37 c0 -12 -5 -7 -19 24 -11 24
-11 24 3 6 9 -11 16 -24 16 -30z m-319 -17 c-5 -13 -10 -19 -10 -12 -1 15 10
45 15 40 3 -2 0 -15 -5 -28z m-14 -51 c-3 -8 -6 -5 -6 6 -1 11 2 17 5 13 3 -3
4 -12 1 -19z m350 -10 c-3 -8 -6 -5 -6 6 -1 11 2 17 5 13 3 -3 4 -12 1 -19z
m-377 2 c0 -5 -2 -10 -4 -10 -3 0 -8 5 -11 10 -3 6 -1 10 4 10 6 0 11 -4 11
-10z m387 -52 c-3 -7 -5 -2 -5 12 0 14 2 19 5 13 2 -7 2 -19 0 -25z m-370 -55
c-2 -16 -4 -3 -4 27 0 30 2 43 4 28 2 -16 2 -40 0 -55z m246 -60 c-23 -2 -64
-2 -90 0 -26 2 -7 3 42 3 50 0 71 -1 48 -3z"/>
<path d="M418 993 c7 -3 16 -2 19 1 4 3 -2 6 -13 5 -11 0 -14 -3 -6 -6z"/>
<path d="M985 790 c11 -5 29 -8 40 -8 16 0 15 2 -5 8 -34 11 -60 11 -35 0z"/>
<path d="M200 760 c-18 -12 -2 -12 25 0 13 6 15 9 5 9 -8 0 -22 -4 -30 -9z"/>
</g>
</svg>
